M48
; DRILL file {KiCad 7.0.8} date Tue 24 Oct 2023 13:11:03 CEST
; FORMAT={-:-/ absolute / metric / decimal}
; #@! TF.CreationDate,2023-10-24T13:11:03+02:00
; #@! TF.GenerationSoftware,Kicad,Pcbnew,7.0.8
; #@! TF.FileFunction,Plated,1,2,PTH
FMAT,2
METRIC
; #@! TA.AperFunction,Plated,PTH,ComponentDrill
T1C0.350
; #@! TA.AperFunction,Plated,PTH,ViaDrill
T2C0.400
; #@! TA.AperFunction,Plated,PTH,ComponentDrill
T3C0.600
; #@! TA.AperFunction,Plated,PTH,ComponentDrill
T4C1.000
; #@! TA.AperFunction,Plated,PTH,ComponentDrill
T5C1.500
; #@! TA.AperFunction,Plated,PTH,ComponentDrill
T6C1.524
; #@! TA.AperFunction,Plated,PTH,ComponentDrill
T7C3.000
; #@! TA.AperFunction,Plated,PTH,ComponentDrill
T8C3.048
; #@! TA.AperFunction,Plated,PTH,ComponentDrill
T9C3.200
%
G90
G05
T1
X244.355Y-98.425
X245.256Y-97.523
X245.256Y-99.327
X246.158Y-96.622
X246.158Y-98.425
X246.158Y-100.228
X247.059Y-97.523
X247.059Y-99.327
X247.961Y-98.425
T2
X31.845Y-69.139
X40.513Y-70.714
X48.336Y-98.501
X48.92Y-114.656
X56.998Y-98.806
X59.861Y-95.301
X64.547Y-120.191
X75.997Y-98.781
X83.597Y-121.59
X84.418Y-118.657
X94.945Y-98.73
X108.052Y-77.775
X108.588Y-75.8
X111.617Y-80.864
X112.58Y-79.849
X113.995Y-98.704
X117.728Y-121.59
X119.563Y-118.968
X123.139Y-115.164
X126.619Y-111.277
X127.287Y-117.047
X128.295Y-113.593
X128.744Y-117.392
X133.121Y-98.73
X152.044Y-98.755
X159.741Y-118.191
X160.274Y-121.691
X171.018Y-98.755
X179.546Y-110.769
X188.894Y-79.78
X189.867Y-80.785
X190.017Y-98.755
X197.968Y-110.515
X203.778Y-116.865
X204.866Y-117.215
X205.738Y-117.703
X206.61Y-118.192
X209.086Y-118.99
X209.22Y-98.755
X213.989Y-126.822
X218.379Y-83.701
X218.688Y-127.381
X220.285Y-79.584
X220.847Y-113.175
X221.285Y-79.584
X221.761Y-134.874
X221.971Y-111.176
X224.695Y-87.948
X225.126Y-87.045
X225.526Y-86.106
X225.926Y-85.185
X226.08Y-84.186
X226.308Y-81.686
X227.889Y-108.687
X228.035Y-87.173
X228.086Y-83.896
X228.289Y-100.965
X228.371Y-98.425
X229.464Y-83.896
X231.343Y-92.075
X232.618Y-119.152
X233.242Y-85.649
X234.594Y-115.188
X235.927Y-102.986
X237.28Y-91.719
X237.458Y-116.243
X237.985Y-101.937
X239.938Y-97.732
X240.284Y-76.784
X240.498Y-70.171
X240.519Y-74.016
X240.906Y-98.134
X240.934Y-96.17
X242.545Y-81.87
X242.611Y-102.791
X243.053Y-113.894
X243.589Y-78.41
X243.662Y-106.629
X243.884Y-72.126
X244.831Y-74.244
X246.126Y-92.532
X247.047Y-74.15
X247.269Y-80.035
X249.751Y-93.542
X249.943Y-114.884
X251.054Y-98.425
X253.71Y-113.676
X254.444Y-111.51
X255.194Y-92.177
X255.749Y-113.699
X256.495Y-114.859
X256.598Y-103.233
X257.042Y-104.343
X257.245Y-98.831
X258.343Y-96.821
X259.912Y-111.303
X260.191Y-93.548
X260.733Y-107.017
X260.883Y-95.148
X261.849Y-114.884
X261.884Y-113.803
X269.799Y-99.873
T4
X36.394Y-66.025
X36.394Y-80.525
X37.866Y-96.418
X37.866Y-98.577
X37.866Y-100.762
X38.894Y-80.525
X40.406Y-96.418
X40.406Y-98.577
X40.406Y-100.762
X41.394Y-66.025
X41.394Y-80.525
X46.38Y-95.87
X46.38Y-98.41
X46.38Y-100.95
X233.756Y-95.885
X233.756Y-98.425
X233.756Y-100.965
X259.358Y-104.165
X261.898Y-104.165
X269.088Y-114.234
X269.088Y-116.774
X269.088Y-119.314
X269.088Y-121.854
T6
X216.059Y-127.635
X222.409Y-125.095
T7
X37.465Y-89.535
X37.465Y-127.635
X41.434Y-67.945
X42.227Y-108.585
X43.815Y-86.995
X43.815Y-125.095
X48.578Y-106.045
X54.134Y-70.485
X58.896Y-89.535
X58.896Y-127.635
X60.484Y-67.945
X62.547Y-135.255
X65.246Y-86.995
X65.246Y-125.095
X68.421Y-108.585
X68.897Y-132.715
X73.184Y-70.485
X74.771Y-106.045
X77.946Y-89.535
X77.946Y-127.635
X79.534Y-67.945
X83.979Y-135.255
X84.296Y-86.995
X84.296Y-125.095
X87.471Y-108.585
X90.329Y-132.715
X92.234Y-70.485
X93.821Y-106.045
X96.996Y-89.535
X98.584Y-67.945
X103.346Y-86.995
X106.521Y-108.585
X111.284Y-70.485
X112.871Y-106.045
X116.046Y-89.535
X117.634Y-67.945
X118.427Y-127.635
X122.396Y-86.995
X124.777Y-125.095
X125.571Y-108.585
X130.334Y-70.485
X131.921Y-106.045
X135.096Y-89.535
X136.684Y-67.945
X141.446Y-86.995
X144.621Y-108.585
X148.272Y-135.255
X149.384Y-70.485
X150.971Y-106.045
X154.146Y-89.535
X154.623Y-132.715
X155.734Y-67.945
X160.496Y-86.995
X163.671Y-108.585
X168.434Y-70.485
X170.021Y-106.045
X173.196Y-89.535
X173.196Y-127.635
X174.784Y-67.945
X179.546Y-86.995
X179.546Y-125.095
X182.721Y-108.585
X187.484Y-70.485
X189.071Y-106.045
X192.246Y-89.535
X193.834Y-67.945
X198.596Y-86.995
X201.771Y-108.585
X206.534Y-70.485
X208.121Y-106.045
X211.296Y-89.535
X212.884Y-67.945
X217.329Y-135.255
X217.646Y-86.995
X218.916Y-132.715
X220.821Y-108.585
X225.584Y-70.485
X227.171Y-106.045
X230.346Y-89.535
X231.934Y-67.945
X233.998Y-135.255
X235.109Y-127.635
X236.696Y-86.995
X239.871Y-108.585
X240.347Y-132.715
X241.459Y-125.095
X246.221Y-106.045
X251.777Y-70.485
X254.159Y-89.535
X256.54Y-127.635
X258.127Y-67.945
X258.921Y-108.585
X260.509Y-86.995
X262.89Y-125.095
X265.271Y-106.045
T8
X100.806Y-123.19
X110.331Y-123.19
X134.144Y-123.19
X157.956Y-123.19
X196.056Y-123.19
X200.819Y-123.19
T9
X59.103Y-117.324
X60.703Y-82.55
X106.052Y-128.774
X136.903Y-82.55
X167.553Y-101.6
X211.696Y-129.057
X239.953Y-80.424
T3
G00X238.153Y-63.378
M15
G01X238.153Y-63.978
M16
G05
G00X238.153Y-67.308
M15
G01X238.153Y-68.408
M16
G05
G00X246.793Y-63.378
M15
G01X246.793Y-63.978
M16
G05
G00X246.793Y-67.308
M15
G01X246.793Y-68.408
M16
G05
T5
G00X33.294Y-73.675
M15
G01X33.294Y-72.375
M16
G05
G00X44.494Y-73.675
M15
G01X44.494Y-72.375
M16
G05
T0
M30
