%TF.GenerationSoftware,KiCad,Pcbnew,7.0.8*%
%TF.CreationDate,2023-10-24T13:10:59+02:00*%
%TF.ProjectId,Monorail_Steam_Reduced,4d6f6e6f-7261-4696-9c5f-537465616d5f,rev?*%
%TF.SameCoordinates,Original*%
%TF.FileFunction,Soldermask,Top*%
%TF.FilePolarity,Negative*%
%FSLAX46Y46*%
G04 Gerber Fmt 4.6, Leading zero omitted, Abs format (unit mm)*
G04 Created by KiCad (PCBNEW 7.0.8) date 2023-10-24 13:10:59*
%MOMM*%
%LPD*%
G01*
G04 APERTURE LIST*
%ADD10C,4.000000*%
%ADD11C,3.987800*%
%ADD12C,1.750000*%
%ADD13R,1.700000X1.700000*%
%ADD14O,1.700000X1.700000*%
%ADD15C,0.650000*%
%ADD16O,1.000000X1.600000*%
%ADD17O,1.000000X2.100000*%
%ADD18C,3.600000*%
%ADD19C,3.000000*%
%ADD20C,2.900000*%
G04 APERTURE END LIST*
D10*
%TO.C,HOLE_M3*%
X239953406Y-80423713D03*
%TD*%
D11*
%TO.C,REF\u002A\u002A*%
X100806250Y-138430000D03*
X200818750Y-138430000D03*
%TD*%
D12*
%TO.C,MX3*%
X214788750Y-130175000D03*
D11*
X219868750Y-130175000D03*
D12*
X224948750Y-130175000D03*
%TD*%
D10*
%TO.C,HOLE_M3*%
X60703406Y-82549712D03*
%TD*%
%TO.C,HOLE_M3*%
X106051973Y-128773715D03*
%TD*%
%TO.C,HOLE_M3*%
X59103407Y-117323711D03*
%TD*%
D13*
%TO.C,J4*%
X261898450Y-104165000D03*
D14*
X259358450Y-104165000D03*
%TD*%
D11*
%TO.C,REF\u002A\u002A*%
X157956250Y-138430000D03*
X196056250Y-138430000D03*
%TD*%
D10*
%TO.C,HOLE_M3*%
X211696300Y-129057400D03*
%TD*%
D11*
%TO.C,REF\u002A\u002A*%
X110331250Y-138430000D03*
X134143750Y-138430000D03*
D10*
X110331250Y-123190000D03*
X134143750Y-123190000D03*
%TD*%
%TO.C,HOLE_M3*%
X167553412Y-101599712D03*
%TD*%
%TO.C,HOLE_M3*%
X136903403Y-82549712D03*
%TD*%
D15*
%TO.C,J6*%
X239582750Y-67327800D03*
X245362750Y-67327800D03*
D16*
X238152750Y-63677800D03*
D17*
X238152750Y-67857800D03*
D16*
X246792750Y-63677800D03*
D17*
X246792750Y-67857800D03*
%TD*%
D12*
%TO.C,MX27*%
X201136250Y-92075000D03*
D11*
X196056250Y-92075000D03*
D12*
X190976250Y-92075000D03*
D18*
X192246250Y-89535000D03*
X198596250Y-86995000D03*
%TD*%
D13*
%TO.C,J1*%
X37866400Y-100761800D03*
D14*
X40406400Y-100761800D03*
%TD*%
D13*
%TO.C,J9*%
X46380400Y-100950000D03*
D14*
X46380400Y-98410000D03*
X46380400Y-95870000D03*
%TD*%
D12*
%TO.C,MX58*%
X182086250Y-130175000D03*
D11*
X177006250Y-130175000D03*
D12*
X171926250Y-130175000D03*
D18*
X173196250Y-127635000D03*
X179546250Y-125095000D03*
%TD*%
D12*
%TO.C,MX19*%
X46355000Y-92075000D03*
D11*
X41275000Y-92075000D03*
D12*
X36195000Y-92075000D03*
D18*
X37465000Y-89535000D03*
X43815000Y-86995000D03*
%TD*%
D12*
%TO.C,MX20*%
X67786250Y-92075000D03*
D11*
X62706250Y-92075000D03*
D12*
X57626250Y-92075000D03*
D18*
X58896250Y-89535000D03*
X65246250Y-86995000D03*
%TD*%
D12*
%TO.C,MX29*%
X239236250Y-92075000D03*
D11*
X234156250Y-92075000D03*
D12*
X229076250Y-92075000D03*
D18*
X230346250Y-89535000D03*
X236696250Y-86995000D03*
%TD*%
D12*
%TO.C,MX41*%
X248761250Y-111125000D03*
D11*
X243681250Y-111125000D03*
D12*
X238601250Y-111125000D03*
D18*
X239871250Y-108585000D03*
X246221250Y-106045000D03*
%TD*%
D12*
%TO.C,MX33*%
X96361250Y-111125000D03*
D11*
X91281250Y-111125000D03*
D12*
X86201250Y-111125000D03*
D18*
X87471250Y-108585000D03*
X93821250Y-106045000D03*
%TD*%
D12*
%TO.C,MX1*%
X231457500Y-130175000D03*
D11*
X236537500Y-130175000D03*
D12*
X241617500Y-130175000D03*
D18*
X240347500Y-132715000D03*
X233997500Y-135255000D03*
%TD*%
D12*
%TO.C,MX28*%
X220186250Y-92075000D03*
D11*
X215106250Y-92075000D03*
D12*
X210026250Y-92075000D03*
D18*
X211296250Y-89535000D03*
X217646250Y-86995000D03*
%TD*%
D13*
%TO.C,J2*%
X37866400Y-96418400D03*
D14*
X40406400Y-96418400D03*
%TD*%
D12*
%TO.C,MX34*%
X115411250Y-111125000D03*
D11*
X110331250Y-111125000D03*
D12*
X105251250Y-111125000D03*
D18*
X106521250Y-108585000D03*
X112871250Y-106045000D03*
%TD*%
D12*
%TO.C,MX45*%
X127317500Y-130175000D03*
D11*
X122237500Y-130175000D03*
D12*
X117157500Y-130175000D03*
D18*
X118427500Y-127635000D03*
X124777500Y-125095000D03*
%TD*%
D12*
%TO.C,MX13*%
X158273750Y-73025000D03*
D11*
X153193750Y-73025000D03*
D12*
X148113750Y-73025000D03*
D18*
X149383750Y-70485000D03*
X155733750Y-67945000D03*
%TD*%
D12*
%TO.C,MX49*%
X210026250Y-130175000D03*
D19*
X212566250Y-135255000D03*
D11*
X215106250Y-130175000D03*
D12*
X220186250Y-130175000D03*
D18*
X218916250Y-132715000D03*
%TD*%
D12*
%TO.C,MX46*%
X46355000Y-130175000D03*
D11*
X41275000Y-130175000D03*
D12*
X36195000Y-130175000D03*
D18*
X37465000Y-127635000D03*
X43815000Y-125095000D03*
%TD*%
D12*
%TO.C,MX9*%
X82073750Y-73025000D03*
D11*
X76993750Y-73025000D03*
D12*
X71913750Y-73025000D03*
D18*
X73183750Y-70485000D03*
X79533750Y-67945000D03*
%TD*%
D12*
%TO.C,MX38*%
X191611250Y-111125000D03*
D11*
X186531250Y-111125000D03*
D12*
X181451250Y-111125000D03*
D18*
X182721250Y-108585000D03*
X189071250Y-106045000D03*
%TD*%
D12*
%TO.C,MX26*%
X182086250Y-92075000D03*
D11*
X177006250Y-92075000D03*
D12*
X171926250Y-92075000D03*
D18*
X173196250Y-89535000D03*
X179546250Y-86995000D03*
%TD*%
D12*
%TO.C,MX15*%
X196373750Y-73025000D03*
D11*
X191293750Y-73025000D03*
D12*
X186213750Y-73025000D03*
D18*
X187483750Y-70485000D03*
X193833750Y-67945000D03*
%TD*%
D12*
%TO.C,MX16*%
X215423750Y-73025000D03*
D11*
X210343750Y-73025000D03*
D12*
X205263750Y-73025000D03*
D18*
X206533750Y-70485000D03*
X212883750Y-67945000D03*
%TD*%
D12*
%TO.C,MX21*%
X86836250Y-92075000D03*
D11*
X81756250Y-92075000D03*
D12*
X76676250Y-92075000D03*
D18*
X77946250Y-89535000D03*
X84296250Y-86995000D03*
%TD*%
D12*
%TO.C,MX52*%
X67786250Y-130175000D03*
D11*
X62706250Y-130175000D03*
D12*
X57626250Y-130175000D03*
D18*
X58896250Y-127635000D03*
X65246250Y-125095000D03*
%TD*%
D12*
%TO.C,MX37*%
X172561250Y-111125000D03*
D11*
X167481250Y-111125000D03*
D12*
X162401250Y-111125000D03*
D18*
X163671250Y-108585000D03*
X170021250Y-106045000D03*
%TD*%
D12*
%TO.C,MX30*%
X263048750Y-92075000D03*
D11*
X257968750Y-92075000D03*
D12*
X252888750Y-92075000D03*
D18*
X254158750Y-89535000D03*
X260508750Y-86995000D03*
%TD*%
D12*
%TO.C,MX22*%
X105886250Y-92075000D03*
D11*
X100806250Y-92075000D03*
D12*
X95726250Y-92075000D03*
D18*
X96996250Y-89535000D03*
X103346250Y-86995000D03*
%TD*%
D12*
%TO.C,MX12*%
X139223750Y-73025000D03*
D11*
X134143750Y-73025000D03*
D12*
X129063750Y-73025000D03*
D18*
X130333750Y-70485000D03*
X136683750Y-67945000D03*
%TD*%
D12*
%TO.C,MX7*%
X43973750Y-73025000D03*
D11*
X38893750Y-73025000D03*
D20*
X35083750Y-70485000D03*
D12*
X33813750Y-73025000D03*
D18*
X41433750Y-67945000D03*
%TD*%
D12*
%TO.C,MX42*%
X267811250Y-111125000D03*
D11*
X262731250Y-111125000D03*
D12*
X257651250Y-111125000D03*
D18*
X258921250Y-108585000D03*
X265271250Y-106045000D03*
%TD*%
D12*
%TO.C,MX43*%
X145732500Y-130175000D03*
D11*
X150812500Y-130175000D03*
D12*
X155892500Y-130175000D03*
D18*
X154622500Y-132715000D03*
X148272500Y-135255000D03*
%TD*%
D12*
%TO.C,MX32*%
X77311250Y-111125000D03*
D11*
X72231250Y-111125000D03*
D12*
X67151250Y-111125000D03*
D18*
X68421250Y-108585000D03*
X74771250Y-106045000D03*
%TD*%
D12*
%TO.C,MX11*%
X120173750Y-73025000D03*
D11*
X115093750Y-73025000D03*
D12*
X110013750Y-73025000D03*
D18*
X111283750Y-70485000D03*
X117633750Y-67945000D03*
%TD*%
D12*
%TO.C,MX54*%
X214788750Y-130175000D03*
D11*
X219868750Y-130175000D03*
D19*
X223678750Y-132715000D03*
D12*
X224948750Y-130175000D03*
D18*
X217328750Y-135255000D03*
%TD*%
D12*
%TO.C,MX57*%
X243998750Y-130175000D03*
D11*
X238918750Y-130175000D03*
D12*
X233838750Y-130175000D03*
D18*
X235108750Y-127635000D03*
X241458750Y-125095000D03*
%TD*%
D12*
%TO.C,MX23*%
X124936250Y-92075000D03*
D11*
X119856250Y-92075000D03*
D12*
X114776250Y-92075000D03*
D18*
X116046250Y-89535000D03*
X122396250Y-86995000D03*
%TD*%
D12*
%TO.C,MX36*%
X153511250Y-111125000D03*
D11*
X148431250Y-111125000D03*
D12*
X143351250Y-111125000D03*
D18*
X144621250Y-108585000D03*
X150971250Y-106045000D03*
%TD*%
D12*
%TO.C,MX31*%
X51117500Y-111125000D03*
D11*
X46037500Y-111125000D03*
D12*
X40957500Y-111125000D03*
D18*
X42227500Y-108585000D03*
X48577500Y-106045000D03*
%TD*%
D12*
%TO.C,MX8*%
X63023750Y-73025000D03*
D11*
X57943750Y-73025000D03*
D12*
X52863750Y-73025000D03*
D18*
X54133750Y-70485000D03*
X60483750Y-67945000D03*
%TD*%
D12*
%TO.C,MX35*%
X134461250Y-111125000D03*
D11*
X129381250Y-111125000D03*
D12*
X124301250Y-111125000D03*
D18*
X125571250Y-108585000D03*
X131921250Y-106045000D03*
%TD*%
D13*
%TO.C,J8*%
X269087600Y-114233800D03*
D14*
X269087600Y-116773800D03*
X269087600Y-119313800D03*
X269087600Y-121853800D03*
%TD*%
D12*
%TO.C,MX18*%
X260667500Y-73025000D03*
D11*
X255587500Y-73025000D03*
D12*
X250507500Y-73025000D03*
D18*
X251777500Y-70485000D03*
X258127500Y-67945000D03*
%TD*%
D12*
%TO.C,MX24*%
X143986250Y-92075000D03*
D11*
X138906250Y-92075000D03*
D12*
X133826250Y-92075000D03*
D18*
X135096250Y-89535000D03*
X141446250Y-86995000D03*
%TD*%
D12*
%TO.C,MX2*%
X60007500Y-130175000D03*
D11*
X65087500Y-130175000D03*
D12*
X70167500Y-130175000D03*
D18*
X68897500Y-132715000D03*
X62547500Y-135255000D03*
%TD*%
D12*
%TO.C,MX53*%
X81438750Y-130175000D03*
D11*
X86518750Y-130175000D03*
D12*
X91598750Y-130175000D03*
D18*
X90328750Y-132715000D03*
X83978750Y-135255000D03*
%TD*%
D12*
%TO.C,MX48*%
X265430000Y-130175000D03*
D11*
X260350000Y-130175000D03*
D12*
X255270000Y-130175000D03*
D18*
X256540000Y-127635000D03*
X262890000Y-125095000D03*
%TD*%
D12*
%TO.C,MX25*%
X163036250Y-92075000D03*
D11*
X157956250Y-92075000D03*
D12*
X152876250Y-92075000D03*
D18*
X154146250Y-89535000D03*
X160496250Y-86995000D03*
%TD*%
D12*
%TO.C,MX47*%
X86836250Y-130175000D03*
D11*
X81756250Y-130175000D03*
D12*
X76676250Y-130175000D03*
D18*
X77946250Y-127635000D03*
X84296250Y-125095000D03*
%TD*%
D12*
%TO.C,MX17*%
X234473750Y-73025000D03*
D11*
X229393750Y-73025000D03*
D12*
X224313750Y-73025000D03*
D18*
X225583750Y-70485000D03*
X231933750Y-67945000D03*
%TD*%
D13*
%TO.C,SWD1*%
X233756200Y-100965000D03*
D14*
X233756200Y-98425000D03*
X233756200Y-95885000D03*
%TD*%
D12*
%TO.C,MX10*%
X101123750Y-73025000D03*
D11*
X96043750Y-73025000D03*
D12*
X90963750Y-73025000D03*
D18*
X92233750Y-70485000D03*
X98583750Y-67945000D03*
%TD*%
D13*
%TO.C,J3*%
X37866400Y-98577400D03*
D14*
X40406400Y-98577400D03*
%TD*%
D12*
%TO.C,MX40*%
X229711250Y-111125000D03*
D11*
X224631250Y-111125000D03*
D12*
X219551250Y-111125000D03*
D18*
X220821250Y-108585000D03*
X227171250Y-106045000D03*
%TD*%
D12*
%TO.C,MX14*%
X177323750Y-73025000D03*
D11*
X172243750Y-73025000D03*
D12*
X167163750Y-73025000D03*
D18*
X168433750Y-70485000D03*
X174783750Y-67945000D03*
%TD*%
D12*
%TO.C,MX39*%
X210661250Y-111125000D03*
D11*
X205581250Y-111125000D03*
D12*
X200501250Y-111125000D03*
D18*
X201771250Y-108585000D03*
X208121250Y-106045000D03*
%TD*%
M02*
