%TF.GenerationSoftware,KiCad,Pcbnew,7.0.8*%
%TF.CreationDate,2023-10-22T18:59:45+02:00*%
%TF.ProjectId,Monorail_Steam_Reduced,4d6f6e6f-7261-4696-9c5f-537465616d5f,rev?*%
%TF.SameCoordinates,Original*%
%TF.FileFunction,Soldermask,Bot*%
%TF.FilePolarity,Negative*%
%FSLAX46Y46*%
G04 Gerber Fmt 4.6, Leading zero omitted, Abs format (unit mm)*
G04 Created by KiCad (PCBNEW 7.0.8) date 2023-10-22 18:59:45*
%MOMM*%
%LPD*%
G01*
G04 APERTURE LIST*
G04 Aperture macros list*
%AMRoundRect*
0 Rectangle with rounded corners*
0 $1 Rounding radius*
0 $2 $3 $4 $5 $6 $7 $8 $9 X,Y pos of 4 corners*
0 Add a 4 corners polygon primitive as box body*
4,1,4,$2,$3,$4,$5,$6,$7,$8,$9,$2,$3,0*
0 Add four circle primitives for the rounded corners*
1,1,$1+$1,$2,$3*
1,1,$1+$1,$4,$5*
1,1,$1+$1,$6,$7*
1,1,$1+$1,$8,$9*
0 Add four rect primitives between the rounded corners*
20,1,$1+$1,$2,$3,$4,$5,0*
20,1,$1+$1,$4,$5,$6,$7,0*
20,1,$1+$1,$6,$7,$8,$9,0*
20,1,$1+$1,$8,$9,$2,$3,0*%
%AMRotRect*
0 Rectangle, with rotation*
0 The origin of the aperture is its center*
0 $1 length*
0 $2 width*
0 $3 Rotation angle, in degrees counterclockwise*
0 Add horizontal line*
21,1,$1,$2,0,0,$3*%
G04 Aperture macros list end*
%ADD10C,4.000000*%
%ADD11C,3.987800*%
%ADD12C,1.750000*%
%ADD13C,2.300000*%
%ADD14R,1.700000X1.700000*%
%ADD15O,1.700000X1.700000*%
%ADD16C,2.000000*%
%ADD17RoundRect,0.500000X0.500000X-0.500000X0.500000X0.500000X-0.500000X0.500000X-0.500000X-0.500000X0*%
%ADD18RoundRect,0.550000X0.550000X-1.150000X0.550000X1.150000X-0.550000X1.150000X-0.550000X-1.150000X0*%
%ADD19C,0.650000*%
%ADD20R,0.600000X1.450000*%
%ADD21R,0.300000X1.450000*%
%ADD22O,1.000000X1.600000*%
%ADD23O,1.000000X2.100000*%
%ADD24C,3.600000*%
%ADD25RoundRect,0.250000X1.025000X1.000000X-1.025000X1.000000X-1.025000X-1.000000X1.025000X-1.000000X0*%
%ADD26RoundRect,0.140000X0.170000X-0.140000X0.170000X0.140000X-0.170000X0.140000X-0.170000X-0.140000X0*%
%ADD27RoundRect,0.225000X0.250000X-0.225000X0.250000X0.225000X-0.250000X0.225000X-0.250000X-0.225000X0*%
%ADD28R,1.000000X1.700000*%
%ADD29RoundRect,0.225000X0.225000X0.250000X-0.225000X0.250000X-0.225000X-0.250000X0.225000X-0.250000X0*%
%ADD30RoundRect,0.150000X0.512500X0.150000X-0.512500X0.150000X-0.512500X-0.150000X0.512500X-0.150000X0*%
%ADD31RoundRect,0.050000X0.309359X-0.238649X-0.238649X0.309359X-0.309359X0.238649X0.238649X-0.309359X0*%
%ADD32RoundRect,0.050000X0.309359X0.238649X0.238649X0.309359X-0.309359X-0.238649X-0.238649X-0.309359X0*%
%ADD33RoundRect,0.144000X2.059095X0.000000X0.000000X2.059095X-2.059095X0.000000X0.000000X-2.059095X0*%
%ADD34RoundRect,0.250000X-1.025000X-1.000000X1.025000X-1.000000X1.025000X1.000000X-1.025000X1.000000X0*%
%ADD35RotRect,0.900000X0.800000X45.000000*%
%ADD36RoundRect,0.250000X0.375000X0.625000X-0.375000X0.625000X-0.375000X-0.625000X0.375000X-0.625000X0*%
%ADD37RoundRect,0.140000X-0.170000X0.140000X-0.170000X-0.140000X0.170000X-0.140000X0.170000X0.140000X0*%
%ADD38R,1.800000X1.400000*%
%ADD39R,1.000000X0.500000*%
%ADD40RoundRect,0.150000X0.650000X0.150000X-0.650000X0.150000X-0.650000X-0.150000X0.650000X-0.150000X0*%
%ADD41R,1.000000X1.500000*%
%ADD42R,0.800000X0.900000*%
%ADD43C,3.000000*%
%ADD44RoundRect,0.150000X-0.600000X-1.100000X0.600000X-1.100000X0.600000X1.100000X-0.600000X1.100000X0*%
%ADD45RoundRect,0.135000X0.135000X0.185000X-0.135000X0.185000X-0.135000X-0.185000X0.135000X-0.185000X0*%
%ADD46RoundRect,0.200000X-0.275000X0.200000X-0.275000X-0.200000X0.275000X-0.200000X0.275000X0.200000X0*%
%ADD47C,3.200000*%
%ADD48RoundRect,0.140000X0.021213X-0.219203X0.219203X-0.021213X-0.021213X0.219203X-0.219203X0.021213X0*%
%ADD49RoundRect,0.135000X0.035355X-0.226274X0.226274X-0.035355X-0.035355X0.226274X-0.226274X0.035355X0*%
%ADD50RotRect,1.400000X1.200000X315.000000*%
%ADD51RoundRect,0.135000X-0.185000X0.135000X-0.185000X-0.135000X0.185000X-0.135000X0.185000X0.135000X0*%
%ADD52RoundRect,0.140000X-0.140000X-0.170000X0.140000X-0.170000X0.140000X0.170000X-0.140000X0.170000X0*%
%ADD53RoundRect,0.200000X0.200000X0.275000X-0.200000X0.275000X-0.200000X-0.275000X0.200000X-0.275000X0*%
G04 APERTURE END LIST*
%TO.C,REF\u002A\u002A*%
G36*
X191508493Y-132444917D02*
G01*
X191403841Y-132444917D01*
X191403841Y-131921663D01*
X191508493Y-131921663D01*
X191508493Y-132444917D01*
G37*
G36*
X191403841Y-132654224D02*
G01*
X191299190Y-132654224D01*
X191299190Y-132444921D01*
X191403841Y-132444921D01*
X191403841Y-132654224D01*
G37*
G36*
X191403841Y-131921663D02*
G01*
X191299190Y-131921663D01*
X191299190Y-131817012D01*
X191403841Y-131817012D01*
X191403841Y-131921663D01*
G37*
G36*
X191299190Y-132758875D02*
G01*
X191194538Y-132758875D01*
X191194538Y-132654224D01*
X191299190Y-132654224D01*
X191299190Y-132758875D01*
G37*
G36*
X191299190Y-131817012D02*
G01*
X191194538Y-131817012D01*
X191194538Y-131712360D01*
X191299190Y-131712360D01*
X191299190Y-131817012D01*
G37*
G36*
X191194538Y-132863523D02*
G01*
X190775933Y-132863523D01*
X190775933Y-132758872D01*
X191194538Y-132758872D01*
X191194538Y-132863523D01*
G37*
G36*
X190775936Y-132758875D02*
G01*
X190671285Y-132758875D01*
X190671285Y-132654224D01*
X190775936Y-132654224D01*
X190775936Y-132758875D01*
G37*
G36*
X190671285Y-132654224D02*
G01*
X190566633Y-132654224D01*
X190566633Y-132549572D01*
X190671285Y-132549572D01*
X190671285Y-132654224D01*
G37*
G36*
X190566633Y-131817012D02*
G01*
X190357330Y-131817012D01*
X190357330Y-131712360D01*
X190566633Y-131712360D01*
X190566633Y-131817012D01*
G37*
G36*
X190148031Y-132340269D02*
G01*
X190043379Y-132340269D01*
X190043379Y-132026315D01*
X190148031Y-132026315D01*
X190148031Y-132340269D01*
G37*
G36*
X190043379Y-132444921D02*
G01*
X189834076Y-132444921D01*
X189834076Y-132340269D01*
X190043379Y-132340269D01*
X190043379Y-132444921D01*
G37*
G36*
X190357333Y-131712363D02*
G01*
X190252682Y-131712363D01*
X190252682Y-132026318D01*
X190148031Y-132026318D01*
X190148031Y-131607712D01*
X190357333Y-131607712D01*
X190357333Y-131712363D01*
G37*
G36*
X189938727Y-131293758D02*
G01*
X190148031Y-131293758D01*
X190148031Y-131398409D01*
X190461982Y-131398409D01*
X190461982Y-131503061D01*
X190566633Y-131503061D01*
X190566633Y-131712360D01*
X190357330Y-131712360D01*
X190357330Y-131607712D01*
X190148031Y-131607712D01*
X190148031Y-132026315D01*
X190043379Y-132026315D01*
X190043379Y-132340269D01*
X189834076Y-132340269D01*
X189834076Y-131817012D01*
X189938727Y-131817012D01*
X189938727Y-131503061D01*
X189834076Y-131503061D01*
X189834076Y-131398409D01*
X189729424Y-131398409D01*
X189729424Y-131189106D01*
X189938727Y-131189106D01*
X189938727Y-131293758D01*
G37*
G36*
X191194538Y-131817012D02*
G01*
X191299190Y-131817012D01*
X191299190Y-131921663D01*
X191403841Y-131921663D01*
X191403841Y-132444921D01*
X191299190Y-132444921D01*
X191299190Y-132654224D01*
X191194538Y-132654224D01*
X191194538Y-132758872D01*
X190775936Y-132758872D01*
X190775936Y-132654224D01*
X190671285Y-132654224D01*
X190671285Y-132549572D01*
X190566633Y-132549572D01*
X190566633Y-132235617D01*
X190775936Y-132235617D01*
X190775936Y-132444921D01*
X190880587Y-132444921D01*
X190880587Y-132549572D01*
X191089890Y-132549572D01*
X191089890Y-132340269D01*
X191194538Y-132340269D01*
X191194538Y-132026315D01*
X191089890Y-132026315D01*
X191089890Y-131921663D01*
X190775936Y-131921663D01*
X190775936Y-131712360D01*
X191194538Y-131712360D01*
X191194538Y-131817012D01*
G37*
G36*
X189624776Y-133596076D02*
G01*
X189729429Y-133596076D01*
X189729429Y-133700732D01*
X189834072Y-133700732D01*
X189834072Y-133805383D01*
X190043379Y-133805383D01*
X190043379Y-133910035D01*
X190148031Y-133910035D01*
X190148031Y-134014689D01*
X190252682Y-134014689D01*
X190252682Y-134119341D01*
X190461978Y-134119341D01*
X190461978Y-134223985D01*
X190671285Y-134223985D01*
X190671285Y-134328638D01*
X190880592Y-134328638D01*
X190880592Y-134433292D01*
X190985236Y-134433292D01*
X190985236Y-134537944D01*
X190775940Y-134537944D01*
X190775940Y-134642595D01*
X190252682Y-134642595D01*
X190252682Y-134537944D01*
X190148031Y-134537944D01*
X190148031Y-134433292D01*
X190043379Y-134433292D01*
X190043379Y-134328638D01*
X189624776Y-134328638D01*
X189624776Y-134223985D01*
X189520121Y-134223985D01*
X189520121Y-133910035D01*
X189415470Y-133910035D01*
X189415470Y-133805383D01*
X189310819Y-133805383D01*
X189310819Y-133491436D01*
X189520121Y-133491436D01*
X189520121Y-133386781D01*
X189624776Y-133386781D01*
X189624776Y-133596076D01*
G37*
G36*
X192764304Y-133282129D02*
G01*
X192868959Y-133282129D01*
X192868959Y-133386781D01*
X192973611Y-133386781D01*
X192973611Y-133491436D01*
X193182917Y-133491436D01*
X193182917Y-133386781D01*
X193287558Y-133386781D01*
X193287558Y-133282129D01*
X193810816Y-133282129D01*
X193810816Y-133386781D01*
X193915467Y-133386781D01*
X193915467Y-134119341D01*
X194124774Y-134119341D01*
X194124774Y-134223985D01*
X194229426Y-134223985D01*
X194229426Y-134433292D01*
X194124774Y-134433292D01*
X194124774Y-134537944D01*
X194020119Y-134537944D01*
X194020119Y-134747240D01*
X193915467Y-134747240D01*
X193915467Y-134851895D01*
X193706172Y-134851895D01*
X193706172Y-134956547D01*
X193601520Y-134956547D01*
X193601520Y-135061198D01*
X193496865Y-135061198D01*
X193496865Y-135165852D01*
X193287558Y-135165852D01*
X193287558Y-135270504D01*
X192555008Y-135270504D01*
X192555008Y-135165852D01*
X192450357Y-135165852D01*
X192450357Y-135061198D01*
X192345702Y-135061198D01*
X192345702Y-134956547D01*
X192241051Y-134956547D01*
X192241051Y-134851895D01*
X192136399Y-134851895D01*
X192136399Y-133700732D01*
X192241051Y-133700732D01*
X192241051Y-133491436D01*
X192345702Y-133491436D01*
X192345702Y-133282129D01*
X192555008Y-133282129D01*
X192555008Y-133177474D01*
X192764304Y-133177474D01*
X192764304Y-133282129D01*
G37*
G36*
X191613145Y-128886797D02*
G01*
X191717797Y-128886797D01*
X191717797Y-129200744D01*
X191822448Y-129200744D01*
X191822448Y-129410051D01*
X191927100Y-129410051D01*
X191927100Y-129619347D01*
X192031751Y-129619347D01*
X192031751Y-129828654D01*
X191927100Y-129828654D01*
X191927100Y-129933305D01*
X190880592Y-129933305D01*
X190880592Y-129828643D01*
X190566634Y-129828643D01*
X190566634Y-129723992D01*
X190357327Y-129723992D01*
X190357327Y-129619340D01*
X190252683Y-129619340D01*
X190252683Y-129514695D01*
X190148031Y-129514695D01*
X190148031Y-129410044D01*
X190043380Y-129410044D01*
X190043380Y-129305393D01*
X189938728Y-129305393D01*
X189938728Y-129200741D01*
X189834077Y-129200741D01*
X189834077Y-129096090D01*
X189729432Y-129096090D01*
X189729432Y-128991431D01*
X190880592Y-128991431D01*
X190985236Y-128991431D01*
X190985236Y-128886786D01*
X191194543Y-128886786D01*
X191194543Y-128782135D01*
X190985236Y-128782135D01*
X190985236Y-128886786D01*
X190880592Y-128886786D01*
X190880592Y-128991431D01*
X189729432Y-128991431D01*
X189729432Y-128886794D01*
X189624780Y-128886794D01*
X189624780Y-128782142D01*
X189520129Y-128782142D01*
X189520129Y-128363539D01*
X189834077Y-128363539D01*
X189834077Y-128468184D01*
X190043383Y-128468184D01*
X190043383Y-128572835D01*
X190775944Y-128572835D01*
X190775944Y-128468184D01*
X190985240Y-128468184D01*
X190985240Y-128363539D01*
X191508494Y-128363539D01*
X191508494Y-128468184D01*
X191613145Y-128468184D01*
X191613145Y-128782135D01*
X191613145Y-128886797D01*
G37*
%TD*%
D10*
%TO.C,HOLE_M3*%
X239953406Y-80423713D03*
%TD*%
%TO.C,REF\u002A\u002A*%
X100806250Y-123190000D03*
D11*
X100806250Y-138430000D03*
D10*
X200818750Y-123190000D03*
D11*
X200818750Y-138430000D03*
%TD*%
D12*
%TO.C,MX3*%
X214788750Y-130175000D03*
D11*
X219868750Y-130175000D03*
D12*
X224948750Y-130175000D03*
D13*
X216058750Y-127635000D03*
X222408750Y-125095000D03*
%TD*%
D10*
%TO.C,HOLE_M3*%
X60703406Y-82549712D03*
%TD*%
%TO.C,HOLE_M3*%
X106051973Y-128773715D03*
%TD*%
%TO.C,HOLE_M3*%
X59103407Y-117323711D03*
%TD*%
D14*
%TO.C,J4*%
X261898450Y-104165000D03*
D15*
X259358450Y-104165000D03*
%TD*%
D10*
%TO.C,REF\u002A\u002A*%
X157956250Y-123190000D03*
D11*
X157956250Y-138430000D03*
D10*
X196056250Y-123190000D03*
D11*
X196056250Y-138430000D03*
%TD*%
D10*
%TO.C,HOLE_M3*%
X211696300Y-129057400D03*
%TD*%
D11*
%TO.C,REF\u002A\u002A*%
X110331250Y-138430000D03*
X134143750Y-138430000D03*
D10*
X110331250Y-123190000D03*
X134143750Y-123190000D03*
%TD*%
%TO.C,HOLE_M3*%
X167553412Y-101599712D03*
%TD*%
%TO.C,HOLE_M3*%
X136903403Y-82549712D03*
%TD*%
D16*
%TO.C,SW3*%
X36393750Y-80525000D03*
X41393750Y-80525000D03*
D17*
X38893750Y-80525000D03*
D18*
X33293750Y-73825000D03*
X44493750Y-73825000D03*
D16*
X41393750Y-66025000D03*
X36393750Y-66025000D03*
%TD*%
D19*
%TO.C,J6*%
X239582750Y-67327800D03*
X245362750Y-67327800D03*
D20*
X239222750Y-68772800D03*
X240022750Y-68772800D03*
D21*
X241222750Y-68772800D03*
X242222750Y-68772800D03*
X242722750Y-68772800D03*
X243722750Y-68772800D03*
D20*
X244922750Y-68772800D03*
X245722750Y-68772800D03*
X245722750Y-68772800D03*
X244922750Y-68772800D03*
D21*
X244222750Y-68772800D03*
X243222750Y-68772800D03*
X241722750Y-68772800D03*
X240722750Y-68772800D03*
D20*
X240022750Y-68772800D03*
X239222750Y-68772800D03*
D22*
X238152750Y-63677800D03*
D23*
X238152750Y-67857800D03*
D22*
X246792750Y-63677800D03*
D23*
X246792750Y-67857800D03*
%TD*%
D12*
%TO.C,MX27*%
X201136250Y-92075000D03*
D11*
X196056250Y-92075000D03*
D12*
X190976250Y-92075000D03*
D24*
X192246250Y-89535000D03*
D25*
X188696250Y-89535000D03*
X202146250Y-86995000D03*
D24*
X198596250Y-86995000D03*
%TD*%
D14*
%TO.C,J1*%
X37866400Y-100761800D03*
D15*
X40406400Y-100761800D03*
%TD*%
D14*
%TO.C,J9*%
X46380400Y-100950000D03*
D15*
X46380400Y-98410000D03*
X46380400Y-95870000D03*
%TD*%
D12*
%TO.C,MX58*%
X182086250Y-130175000D03*
D11*
X177006250Y-130175000D03*
D12*
X171926250Y-130175000D03*
D24*
X173196250Y-127635000D03*
D25*
X169646250Y-127635000D03*
X183096250Y-125095000D03*
D24*
X179546250Y-125095000D03*
%TD*%
D26*
%TO.C,C21*%
X262763000Y-79588600D03*
X262763000Y-78628600D03*
%TD*%
D12*
%TO.C,MX19*%
X46355000Y-92075000D03*
D11*
X41275000Y-92075000D03*
D12*
X36195000Y-92075000D03*
D24*
X37465000Y-89535000D03*
D25*
X33915000Y-89535000D03*
X47365000Y-86995000D03*
D24*
X43815000Y-86995000D03*
%TD*%
D27*
%TO.C,C15*%
X252850650Y-79108600D03*
X252850650Y-77558600D03*
%TD*%
D26*
%TO.C,C23*%
X261594600Y-79588600D03*
X261594600Y-78628600D03*
%TD*%
D12*
%TO.C,MX20*%
X67786250Y-92075000D03*
D11*
X62706250Y-92075000D03*
D12*
X57626250Y-92075000D03*
D24*
X58896250Y-89535000D03*
D25*
X55346250Y-89535000D03*
X68796250Y-86995000D03*
D24*
X65246250Y-86995000D03*
%TD*%
D28*
%TO.C,SWR1*%
X258490800Y-121183800D03*
X258490800Y-114883800D03*
X254690800Y-121183800D03*
X254690800Y-114883800D03*
%TD*%
D26*
%TO.C,C1*%
X254196850Y-78813600D03*
X254196850Y-77853600D03*
%TD*%
D29*
%TO.C,C18*%
X230899000Y-99949000D03*
X229349000Y-99949000D03*
%TD*%
D30*
%TO.C,U1*%
X243617750Y-73025000D03*
X243617750Y-73975000D03*
X243617750Y-74925000D03*
X241342750Y-74925000D03*
X241342750Y-73975000D03*
X241342750Y-73025000D03*
%TD*%
D31*
%TO.C,U3*%
X250426907Y-99017202D03*
X250144064Y-99300045D03*
X249861222Y-99582887D03*
X249578379Y-99865730D03*
X249295536Y-100148573D03*
X249012694Y-100431415D03*
X248729851Y-100714258D03*
X248447008Y-100997101D03*
X248164165Y-101279944D03*
X247881323Y-101562786D03*
X247598480Y-101845629D03*
X247315637Y-102128472D03*
X247032795Y-102411314D03*
X246749952Y-102694157D03*
D32*
X245565548Y-102694157D03*
X245282705Y-102411314D03*
X244999863Y-102128472D03*
X244717020Y-101845629D03*
X244434177Y-101562786D03*
X244151335Y-101279944D03*
X243868492Y-100997101D03*
X243585649Y-100714258D03*
X243302806Y-100431415D03*
X243019964Y-100148573D03*
X242737121Y-99865730D03*
X242454278Y-99582887D03*
X242171436Y-99300045D03*
X241888593Y-99017202D03*
D31*
X241888593Y-97832798D03*
X242171436Y-97549955D03*
X242454278Y-97267113D03*
X242737121Y-96984270D03*
X243019964Y-96701427D03*
X243302806Y-96418585D03*
X243585649Y-96135742D03*
X243868492Y-95852899D03*
X244151335Y-95570056D03*
X244434177Y-95287214D03*
X244717020Y-95004371D03*
X244999863Y-94721528D03*
X245282705Y-94438686D03*
X245565548Y-94155843D03*
D32*
X246749952Y-94155843D03*
X247032795Y-94438686D03*
X247315637Y-94721528D03*
X247598480Y-95004371D03*
X247881323Y-95287214D03*
X248164165Y-95570056D03*
X248447008Y-95852899D03*
X248729851Y-96135742D03*
X249012694Y-96418585D03*
X249295536Y-96701427D03*
X249578379Y-96984270D03*
X249861222Y-97267113D03*
X250144064Y-97549955D03*
X250426907Y-97832798D03*
D33*
X246157750Y-98425000D03*
%TD*%
D12*
%TO.C,MX29*%
X239236250Y-92075000D03*
D11*
X234156250Y-92075000D03*
D12*
X229076250Y-92075000D03*
D24*
X230346250Y-89535000D03*
D25*
X226796250Y-89535000D03*
X240246250Y-86995000D03*
D24*
X236696250Y-86995000D03*
%TD*%
D12*
%TO.C,MX41*%
X248761250Y-111125000D03*
D11*
X243681250Y-111125000D03*
D12*
X238601250Y-111125000D03*
D24*
X239871250Y-108585000D03*
D25*
X236321250Y-108585000D03*
X249771250Y-106045000D03*
D24*
X246221250Y-106045000D03*
%TD*%
D12*
%TO.C,MX33*%
X96361250Y-111125000D03*
D11*
X91281250Y-111125000D03*
D12*
X86201250Y-111125000D03*
D24*
X87471250Y-108585000D03*
D25*
X83921250Y-108585000D03*
X97371250Y-106045000D03*
D24*
X93821250Y-106045000D03*
%TD*%
D12*
%TO.C,MX1*%
X231457500Y-130175000D03*
D11*
X236537500Y-130175000D03*
D12*
X241617500Y-130175000D03*
D24*
X240347500Y-132715000D03*
D34*
X243897500Y-132715000D03*
X230447500Y-135255000D03*
D24*
X233997500Y-135255000D03*
%TD*%
D35*
%TO.C,D19*%
X125288245Y-118879258D03*
X123944742Y-117535755D03*
X126030707Y-116793293D03*
%TD*%
D12*
%TO.C,MX28*%
X220186250Y-92075000D03*
D11*
X215106250Y-92075000D03*
D12*
X210026250Y-92075000D03*
D24*
X211296250Y-89535000D03*
D25*
X207746250Y-89535000D03*
X221196250Y-86995000D03*
D24*
X217646250Y-86995000D03*
%TD*%
D36*
%TO.C,F1*%
X243880250Y-76911200D03*
X241080250Y-76911200D03*
%TD*%
D37*
%TO.C,C5*%
X246157750Y-89563000D03*
X246157750Y-90523000D03*
%TD*%
D26*
%TO.C,C2*%
X258921250Y-78813600D03*
X258921250Y-77853600D03*
%TD*%
D35*
%TO.C,D13*%
X186857845Y-81744458D03*
X185514342Y-80400955D03*
X187600307Y-79658493D03*
%TD*%
D38*
%TO.C,D66*%
X98406250Y-100075000D03*
X98406250Y-96775000D03*
D39*
X100806250Y-98025000D03*
D38*
X103206250Y-96775000D03*
D39*
X100806250Y-98825000D03*
D38*
X103206250Y-100075000D03*
%TD*%
%TO.C,D60*%
X193656250Y-100075000D03*
X193656250Y-96775000D03*
D39*
X196056250Y-98025000D03*
D38*
X198456250Y-96775000D03*
D39*
X196056250Y-98825000D03*
D38*
X198456250Y-100075000D03*
%TD*%
D14*
%TO.C,J2*%
X37866400Y-96418400D03*
D15*
X40406400Y-96418400D03*
%TD*%
D35*
%TO.C,D18*%
X227548645Y-84335258D03*
X226205142Y-82991755D03*
X228291107Y-82249293D03*
%TD*%
D40*
%TO.C,U4*%
X266470950Y-96850200D03*
X266470950Y-98120200D03*
X266470950Y-99390200D03*
X266470950Y-100660200D03*
X259270950Y-100660200D03*
X259270950Y-99390200D03*
X259270950Y-98120200D03*
X259270950Y-96850200D03*
%TD*%
D28*
%TO.C,SWR2*%
X260831250Y-114883800D03*
X260831250Y-121183800D03*
X264631250Y-114883800D03*
X264631250Y-121183800D03*
%TD*%
D27*
%TO.C,C16*%
X248202450Y-79108600D03*
X248202450Y-77558600D03*
%TD*%
D38*
%TO.C,D61*%
X174606250Y-100056000D03*
X174606250Y-96756000D03*
D39*
X177006250Y-98006000D03*
D38*
X179406250Y-96756000D03*
D39*
X177006250Y-98806000D03*
D38*
X179406250Y-100056000D03*
%TD*%
D12*
%TO.C,MX34*%
X115411250Y-111125000D03*
D11*
X110331250Y-111125000D03*
D12*
X105251250Y-111125000D03*
D24*
X106521250Y-108585000D03*
D25*
X102971250Y-108585000D03*
X116421250Y-106045000D03*
D24*
X112871250Y-106045000D03*
%TD*%
D35*
%TO.C,D1*%
X108041645Y-79102858D03*
X106698142Y-77759355D03*
X108784107Y-77016893D03*
%TD*%
D12*
%TO.C,MX45*%
X127317500Y-130175000D03*
D11*
X122237500Y-130175000D03*
D12*
X117157500Y-130175000D03*
D24*
X118427500Y-127635000D03*
D25*
X114877500Y-127635000D03*
X128327500Y-125095000D03*
D24*
X124777500Y-125095000D03*
%TD*%
D12*
%TO.C,MX13*%
X158273750Y-73025000D03*
D11*
X153193750Y-73025000D03*
D12*
X148113750Y-73025000D03*
D24*
X149383750Y-70485000D03*
D25*
X145833750Y-70485000D03*
X159283750Y-67945000D03*
D24*
X155733750Y-67945000D03*
%TD*%
D35*
%TO.C,D7*%
X110657845Y-81744458D03*
X109314342Y-80400955D03*
X111400307Y-79658493D03*
%TD*%
D26*
%TO.C,C25*%
X251231400Y-92453400D03*
X251231400Y-91493400D03*
%TD*%
%TO.C,C26*%
X250215400Y-92453400D03*
X250215400Y-91493400D03*
%TD*%
D41*
%TO.C,JP1*%
X230774000Y-102082600D03*
X229474000Y-102082600D03*
%TD*%
D42*
%TO.C,U2*%
X255634450Y-77333600D03*
X257534450Y-77333600D03*
X256584450Y-79333600D03*
%TD*%
D35*
%TO.C,D10*%
X119801845Y-113392858D03*
X118458342Y-112049355D03*
X120544307Y-111306893D03*
%TD*%
D26*
%TO.C,C3*%
X247142000Y-92580400D03*
X247142000Y-91620400D03*
%TD*%
D12*
%TO.C,MX49*%
X210026250Y-130175000D03*
D43*
X212566250Y-135255000D03*
D11*
X215106250Y-130175000D03*
D12*
X220186250Y-130175000D03*
D24*
X218916250Y-132715000D03*
D44*
X221466250Y-132715000D03*
D34*
X209016250Y-135255000D03*
%TD*%
D38*
%TO.C,D59*%
X212706250Y-100075000D03*
X212706250Y-96775000D03*
D39*
X215106250Y-98025000D03*
D38*
X217506250Y-96775000D03*
D39*
X215106250Y-98825000D03*
D38*
X217506250Y-100075000D03*
%TD*%
D12*
%TO.C,MX46*%
X46355000Y-130175000D03*
D11*
X41275000Y-130175000D03*
D12*
X36195000Y-130175000D03*
D24*
X37465000Y-127635000D03*
D25*
X33915000Y-127635000D03*
X47365000Y-125095000D03*
D24*
X43815000Y-125095000D03*
%TD*%
D12*
%TO.C,MX9*%
X82073750Y-73025000D03*
D11*
X76993750Y-73025000D03*
D12*
X71913750Y-73025000D03*
D24*
X73183750Y-70485000D03*
D25*
X69633750Y-70485000D03*
X83083750Y-67945000D03*
D24*
X79533750Y-67945000D03*
%TD*%
D35*
%TO.C,D17*%
X236692645Y-115932858D03*
X235349142Y-114589355D03*
X237435107Y-113846893D03*
%TD*%
D12*
%TO.C,MX38*%
X191611250Y-111125000D03*
D11*
X186531250Y-111125000D03*
D12*
X181451250Y-111125000D03*
D24*
X182721250Y-108585000D03*
D25*
X179171250Y-108585000D03*
X192621250Y-106045000D03*
D24*
X189071250Y-106045000D03*
%TD*%
D35*
%TO.C,D4*%
X181701645Y-76562858D03*
X180358142Y-75219355D03*
X182444107Y-74476893D03*
%TD*%
D12*
%TO.C,MX26*%
X182086250Y-92075000D03*
D11*
X177006250Y-92075000D03*
D12*
X171926250Y-92075000D03*
D24*
X173196250Y-89535000D03*
D25*
X169646250Y-89535000D03*
X183096250Y-86995000D03*
D24*
X179546250Y-86995000D03*
%TD*%
D45*
%TO.C,R7*%
X245086600Y-79781400D03*
X244066600Y-79781400D03*
%TD*%
%TO.C,R6*%
X245086600Y-80822800D03*
X244066600Y-80822800D03*
%TD*%
D38*
%TO.C,D63*%
X136506250Y-100068600D03*
X136506250Y-96768600D03*
D39*
X138906250Y-98018600D03*
D38*
X141306250Y-96768600D03*
D39*
X138906250Y-98818600D03*
D38*
X141306250Y-100068600D03*
%TD*%
D35*
%TO.C,D20*%
X127828245Y-121419258D03*
X126484742Y-120075755D03*
X128570707Y-119333293D03*
%TD*%
D12*
%TO.C,MX15*%
X196373750Y-73025000D03*
D11*
X191293750Y-73025000D03*
D12*
X186213750Y-73025000D03*
D24*
X187483750Y-70485000D03*
D25*
X183933750Y-70485000D03*
X197383750Y-67945000D03*
D24*
X193833750Y-67945000D03*
%TD*%
D37*
%TO.C,C8*%
X245186200Y-89563000D03*
X245186200Y-90523000D03*
%TD*%
D35*
%TO.C,D22*%
X201488245Y-118879258D03*
X200144742Y-117535755D03*
X202230707Y-116793293D03*
%TD*%
D27*
%TO.C,C17*%
X251301250Y-79108600D03*
X251301250Y-77558600D03*
%TD*%
D12*
%TO.C,MX16*%
X215423750Y-73025000D03*
D11*
X210343750Y-73025000D03*
D12*
X205263750Y-73025000D03*
D24*
X206533750Y-70485000D03*
D25*
X202983750Y-70485000D03*
X216433750Y-67945000D03*
D24*
X212883750Y-67945000D03*
%TD*%
D35*
%TO.C,D9*%
X122341845Y-115932858D03*
X120998342Y-114589355D03*
X123084307Y-113846893D03*
%TD*%
D12*
%TO.C,MX21*%
X86836250Y-92075000D03*
D11*
X81756250Y-92075000D03*
D12*
X76676250Y-92075000D03*
D24*
X77946250Y-89535000D03*
D25*
X74396250Y-89535000D03*
X87846250Y-86995000D03*
D24*
X84296250Y-86995000D03*
%TD*%
D38*
%TO.C,D67*%
X117456250Y-100068600D03*
X117456250Y-96768600D03*
D39*
X119856250Y-98018600D03*
D38*
X122256250Y-96768600D03*
D39*
X119856250Y-98818600D03*
D38*
X122256250Y-100068600D03*
%TD*%
D12*
%TO.C,MX52*%
X67786250Y-130175000D03*
D11*
X62706250Y-130175000D03*
D12*
X57626250Y-130175000D03*
D24*
X58896250Y-127635000D03*
D25*
X55346250Y-127635000D03*
X68796250Y-125095000D03*
D24*
X65246250Y-125095000D03*
%TD*%
D35*
%TO.C,D15*%
X225008645Y-81795258D03*
X223665142Y-80451755D03*
X225751107Y-79709293D03*
%TD*%
D12*
%TO.C,MX37*%
X172561250Y-111125000D03*
D11*
X167481250Y-111125000D03*
D12*
X162401250Y-111125000D03*
D24*
X163671250Y-108585000D03*
D25*
X160121250Y-108585000D03*
X173571250Y-106045000D03*
D24*
X170021250Y-106045000D03*
%TD*%
D12*
%TO.C,MX30*%
X263048750Y-92075000D03*
D11*
X257968750Y-92075000D03*
D12*
X252888750Y-92075000D03*
D24*
X254158750Y-89535000D03*
D25*
X250608750Y-89535000D03*
X264058750Y-86995000D03*
D24*
X260508750Y-86995000D03*
%TD*%
D46*
%TO.C,R5*%
X252799850Y-119977400D03*
X252799850Y-121627400D03*
%TD*%
D12*
%TO.C,MX22*%
X105886250Y-92075000D03*
D11*
X100806250Y-92075000D03*
D12*
X95726250Y-92075000D03*
D24*
X96996250Y-89535000D03*
D25*
X93446250Y-89535000D03*
X106896250Y-86995000D03*
D24*
X103346250Y-86995000D03*
%TD*%
D12*
%TO.C,MX12*%
X139223750Y-73025000D03*
D11*
X134143750Y-73025000D03*
D12*
X129063750Y-73025000D03*
D24*
X130333750Y-70485000D03*
D25*
X126783750Y-70485000D03*
X140233750Y-67945000D03*
D24*
X136683750Y-67945000D03*
%TD*%
D35*
%TO.C,D5*%
X219827045Y-76562858D03*
X218483542Y-75219355D03*
X220569507Y-74476893D03*
%TD*%
%TO.C,D11*%
X198541845Y-115932858D03*
X197198342Y-114589355D03*
X199284307Y-113846893D03*
%TD*%
D12*
%TO.C,MX7*%
X43973750Y-73025000D03*
D11*
X38893750Y-73025000D03*
D12*
X33813750Y-73025000D03*
D47*
X35083750Y-70485000D03*
D25*
X31533750Y-70185000D03*
X44983750Y-67945000D03*
D24*
X41433750Y-67945000D03*
%TD*%
D38*
%TO.C,D65*%
X79356250Y-100075000D03*
X79356250Y-96775000D03*
D39*
X81756250Y-98025000D03*
D38*
X84156250Y-96775000D03*
D39*
X81756250Y-98825000D03*
D38*
X84156250Y-100075000D03*
%TD*%
D35*
%TO.C,D14*%
X189423245Y-84284458D03*
X188079742Y-82940955D03*
X190165707Y-82198493D03*
%TD*%
%TO.C,D3*%
X184241645Y-79102858D03*
X182898142Y-77759355D03*
X184984107Y-77016893D03*
%TD*%
%TO.C,D2*%
X105533395Y-76562858D03*
X104189892Y-75219355D03*
X106275857Y-74476893D03*
%TD*%
D48*
%TO.C,C27*%
X241195424Y-104206246D03*
X241874246Y-103527424D03*
%TD*%
D12*
%TO.C,MX42*%
X267811250Y-111125000D03*
D11*
X262731250Y-111125000D03*
D12*
X257651250Y-111125000D03*
D24*
X258921250Y-108585000D03*
D25*
X255371250Y-108585000D03*
X268821250Y-106045000D03*
D24*
X265271250Y-106045000D03*
%TD*%
D29*
%TO.C,C13*%
X230899000Y-98425000D03*
X229349000Y-98425000D03*
%TD*%
D12*
%TO.C,MX43*%
X145732500Y-130175000D03*
D11*
X150812500Y-130175000D03*
D12*
X155892500Y-130175000D03*
D24*
X154622500Y-132715000D03*
D34*
X158172500Y-132715000D03*
X144722500Y-135255000D03*
D24*
X148272500Y-135255000D03*
%TD*%
D12*
%TO.C,MX32*%
X77311250Y-111125000D03*
D11*
X72231250Y-111125000D03*
D12*
X67151250Y-111125000D03*
D24*
X68421250Y-108585000D03*
D25*
X64871250Y-108585000D03*
X78321250Y-106045000D03*
D24*
X74771250Y-106045000D03*
%TD*%
D49*
%TO.C,R12*%
X236697576Y-99776224D03*
X237418824Y-99054976D03*
%TD*%
D12*
%TO.C,MX11*%
X120173750Y-73025000D03*
D11*
X115093750Y-73025000D03*
D12*
X110013750Y-73025000D03*
D24*
X111283750Y-70485000D03*
D25*
X107733750Y-70485000D03*
X121183750Y-67945000D03*
D24*
X117633750Y-67945000D03*
%TD*%
D50*
%TO.C,Y1*%
X238937800Y-101193600D03*
X240493435Y-102749235D03*
X239291354Y-103951316D03*
X237735719Y-102395681D03*
%TD*%
D12*
%TO.C,MX54*%
X214788750Y-130175000D03*
D11*
X219868750Y-130175000D03*
D43*
X223678750Y-132715000D03*
D12*
X224948750Y-130175000D03*
D34*
X227228750Y-132715000D03*
D44*
X214778750Y-135255000D03*
D24*
X217328750Y-135255000D03*
%TD*%
D12*
%TO.C,MX57*%
X243998750Y-130175000D03*
D11*
X238918750Y-130175000D03*
D12*
X233838750Y-130175000D03*
D24*
X235108750Y-127635000D03*
D25*
X231558750Y-127635000D03*
X245008750Y-125095000D03*
D24*
X241458750Y-125095000D03*
%TD*%
D51*
%TO.C,R14*%
X266338050Y-120825800D03*
X266338050Y-121845800D03*
%TD*%
D12*
%TO.C,MX23*%
X124936250Y-92075000D03*
D11*
X119856250Y-92075000D03*
D12*
X114776250Y-92075000D03*
D24*
X116046250Y-89535000D03*
D25*
X112496250Y-89535000D03*
X125946250Y-86995000D03*
D24*
X122396250Y-86995000D03*
%TD*%
D27*
%TO.C,C19*%
X249751850Y-79108600D03*
X249751850Y-77558600D03*
%TD*%
D46*
%TO.C,R4*%
X247046750Y-73150000D03*
X247046750Y-74800000D03*
%TD*%
D12*
%TO.C,MX36*%
X153511250Y-111125000D03*
D11*
X148431250Y-111125000D03*
D12*
X143351250Y-111125000D03*
D24*
X144621250Y-108585000D03*
D25*
X141071250Y-108585000D03*
X154521250Y-106045000D03*
D24*
X150971250Y-106045000D03*
%TD*%
D12*
%TO.C,MX31*%
X51117500Y-111125000D03*
D11*
X46037500Y-111125000D03*
D12*
X40957500Y-111125000D03*
D24*
X42227500Y-108585000D03*
D25*
X38677500Y-108585000D03*
X52127500Y-106045000D03*
D24*
X48577500Y-106045000D03*
%TD*%
D38*
%TO.C,D62*%
X155556250Y-100068600D03*
X155556250Y-96768600D03*
D39*
X157956250Y-98018600D03*
D38*
X160356250Y-96768600D03*
D39*
X157956250Y-98818600D03*
D38*
X160356250Y-100068600D03*
%TD*%
D26*
%TO.C,C22*%
X260477000Y-79588600D03*
X260477000Y-78628600D03*
%TD*%
D12*
%TO.C,MX8*%
X63023750Y-73025000D03*
D11*
X57943750Y-73025000D03*
D12*
X52863750Y-73025000D03*
D24*
X54133750Y-70485000D03*
D25*
X50583750Y-70485000D03*
X64033750Y-67945000D03*
D24*
X60483750Y-67945000D03*
%TD*%
D52*
%TO.C,C28*%
X258650800Y-95326200D03*
X259610800Y-95326200D03*
%TD*%
D38*
%TO.C,D64*%
X60306250Y-100075000D03*
X60306250Y-96775000D03*
D39*
X62706250Y-98025000D03*
D38*
X65106250Y-96775000D03*
D39*
X62706250Y-98825000D03*
D38*
X65106250Y-100075000D03*
%TD*%
D37*
%TO.C,C7*%
X247142000Y-89563000D03*
X247142000Y-90523000D03*
%TD*%
D12*
%TO.C,MX35*%
X134461250Y-111125000D03*
D11*
X129381250Y-111125000D03*
D12*
X124301250Y-111125000D03*
D24*
X125571250Y-108585000D03*
D25*
X122021250Y-108585000D03*
X135471250Y-106045000D03*
D24*
X131921250Y-106045000D03*
%TD*%
D29*
%TO.C,C14*%
X230899000Y-96901000D03*
X229349000Y-96901000D03*
%TD*%
D27*
%TO.C,C20*%
X246329200Y-79121000D03*
X246329200Y-77571000D03*
%TD*%
D46*
%TO.C,R2*%
X238029750Y-73150000D03*
X238029750Y-74800000D03*
%TD*%
D14*
%TO.C,J8*%
X269087600Y-114233800D03*
D15*
X269087600Y-116773800D03*
X269087600Y-119313800D03*
X269087600Y-121853800D03*
%TD*%
D12*
%TO.C,MX18*%
X260667500Y-73025000D03*
D11*
X255587500Y-73025000D03*
D12*
X250507500Y-73025000D03*
D24*
X251777500Y-70485000D03*
D25*
X248227500Y-70485000D03*
X261677500Y-67945000D03*
D24*
X258127500Y-67945000D03*
%TD*%
D12*
%TO.C,MX24*%
X143986250Y-92075000D03*
D11*
X138906250Y-92075000D03*
D12*
X133826250Y-92075000D03*
D24*
X135096250Y-89535000D03*
D25*
X131546250Y-89535000D03*
X144996250Y-86995000D03*
D24*
X141446250Y-86995000D03*
%TD*%
D35*
%TO.C,D8*%
X113197845Y-84284458D03*
X111854342Y-82940955D03*
X113940307Y-82198493D03*
%TD*%
D12*
%TO.C,MX2*%
X60007500Y-130175000D03*
D11*
X65087500Y-130175000D03*
D12*
X70167500Y-130175000D03*
D24*
X68897500Y-132715000D03*
D34*
X72447500Y-132715000D03*
X58997500Y-135255000D03*
D24*
X62547500Y-135255000D03*
%TD*%
D12*
%TO.C,MX53*%
X81438750Y-130175000D03*
D11*
X86518750Y-130175000D03*
D12*
X91598750Y-130175000D03*
D24*
X90328750Y-132715000D03*
D34*
X93878750Y-132715000D03*
X80428750Y-135255000D03*
D24*
X83978750Y-135255000D03*
%TD*%
D12*
%TO.C,MX48*%
X265430000Y-130175000D03*
D11*
X260350000Y-130175000D03*
D12*
X255270000Y-130175000D03*
D24*
X256540000Y-127635000D03*
D25*
X252990000Y-127635000D03*
X266440000Y-125095000D03*
D24*
X262890000Y-125095000D03*
%TD*%
D12*
%TO.C,MX25*%
X163036250Y-92075000D03*
D11*
X157956250Y-92075000D03*
D12*
X152876250Y-92075000D03*
D24*
X154146250Y-89535000D03*
D25*
X150596250Y-89535000D03*
X164046250Y-86995000D03*
D24*
X160496250Y-86995000D03*
%TD*%
D12*
%TO.C,MX47*%
X86836250Y-130175000D03*
D11*
X81756250Y-130175000D03*
D12*
X76676250Y-130175000D03*
D24*
X77946250Y-127635000D03*
D25*
X74396250Y-127635000D03*
X87846250Y-125095000D03*
D24*
X84296250Y-125095000D03*
%TD*%
D26*
%TO.C,C4*%
X245186200Y-92580400D03*
X245186200Y-91620400D03*
%TD*%
D48*
%TO.C,C6*%
X237455389Y-100466211D03*
X238134211Y-99787389D03*
%TD*%
D35*
%TO.C,D12*%
X196001845Y-113392858D03*
X194658342Y-112049355D03*
X196744307Y-111306893D03*
%TD*%
%TO.C,D16*%
X234152645Y-113392858D03*
X232809142Y-112049355D03*
X234895107Y-111306893D03*
%TD*%
D12*
%TO.C,MX17*%
X234473750Y-73025000D03*
D11*
X229393750Y-73025000D03*
D12*
X224313750Y-73025000D03*
D24*
X225583750Y-70485000D03*
D25*
X222033750Y-70485000D03*
X235483750Y-67945000D03*
D24*
X231933750Y-67945000D03*
%TD*%
D14*
%TO.C,SWD1*%
X233756200Y-100965000D03*
D15*
X233756200Y-98425000D03*
X233756200Y-95885000D03*
%TD*%
D53*
%TO.C,R13*%
X266839200Y-95072200D03*
X265189200Y-95072200D03*
%TD*%
D12*
%TO.C,MX10*%
X101123750Y-73025000D03*
D11*
X96043750Y-73025000D03*
D12*
X90963750Y-73025000D03*
D24*
X92233750Y-70485000D03*
D25*
X88683750Y-70485000D03*
X102133750Y-67945000D03*
D24*
X98583750Y-67945000D03*
%TD*%
D14*
%TO.C,J3*%
X37866400Y-98577400D03*
D15*
X40406400Y-98577400D03*
%TD*%
D12*
%TO.C,MX40*%
X229711250Y-111125000D03*
D11*
X224631250Y-111125000D03*
D12*
X219551250Y-111125000D03*
D24*
X220821250Y-108585000D03*
D25*
X217271250Y-108585000D03*
X230721250Y-106045000D03*
D24*
X227171250Y-106045000D03*
%TD*%
D35*
%TO.C,D6*%
X222367045Y-79102858D03*
X221023542Y-77759355D03*
X223109507Y-77016893D03*
%TD*%
D12*
%TO.C,MX14*%
X177323750Y-73025000D03*
D11*
X172243750Y-73025000D03*
D12*
X167163750Y-73025000D03*
D24*
X168433750Y-70485000D03*
D25*
X164883750Y-70485000D03*
X178333750Y-67945000D03*
D24*
X174783750Y-67945000D03*
%TD*%
D12*
%TO.C,MX39*%
X210661250Y-111125000D03*
D11*
X205581250Y-111125000D03*
D12*
X200501250Y-111125000D03*
D24*
X201771250Y-108585000D03*
D25*
X198221250Y-108585000D03*
X211671250Y-106045000D03*
D24*
X208121250Y-106045000D03*
%TD*%
D35*
%TO.C,D21*%
X204028245Y-121419258D03*
X202684742Y-120075755D03*
X204770707Y-119333293D03*
%TD*%
M02*
