M48
; DRILL file {KiCad 7.0.8} date Sun 22 Oct 2023 18:59:47 CEST
; FORMAT={-:-/ absolute / metric / decimal}
; #@! TF.CreationDate,2023-10-22T18:59:47+02:00
; #@! TF.GenerationSoftware,Kicad,Pcbnew,7.0.8
; #@! TF.FileFunction,NonPlated,1,2,NPTH
FMAT,2
METRIC
; #@! TA.AperFunction,NonPlated,NPTH,ComponentDrill
T1C0.650
; #@! TA.AperFunction,NonPlated,NPTH,ComponentDrill
T2C1.750
; #@! TA.AperFunction,NonPlated,NPTH,ComponentDrill
T3C3.000
; #@! TA.AperFunction,NonPlated,NPTH,ComponentDrill
T4C3.988
%
G90
G05
T1
X239.583Y-67.328
X245.363Y-67.328
T2
X33.814Y-73.025
X36.195Y-92.075
X36.195Y-130.175
X40.957Y-111.125
X43.974Y-73.025
X46.355Y-92.075
X46.355Y-130.175
X51.117Y-111.125
X52.864Y-73.025
X57.626Y-92.075
X57.626Y-130.175
X60.008Y-130.175
X63.024Y-73.025
X67.151Y-111.125
X67.786Y-92.075
X67.786Y-130.175
X70.167Y-130.175
X71.914Y-73.025
X76.676Y-92.075
X76.676Y-130.175
X77.311Y-111.125
X81.439Y-130.175
X82.074Y-73.025
X86.201Y-111.125
X86.836Y-92.075
X86.836Y-130.175
X90.964Y-73.025
X91.599Y-130.175
X95.726Y-92.075
X96.361Y-111.125
X101.124Y-73.025
X105.251Y-111.125
X105.886Y-92.075
X110.014Y-73.025
X114.776Y-92.075
X115.411Y-111.125
X117.157Y-130.175
X120.174Y-73.025
X124.301Y-111.125
X124.936Y-92.075
X127.317Y-130.175
X129.064Y-73.025
X133.826Y-92.075
X134.461Y-111.125
X139.224Y-73.025
X143.351Y-111.125
X143.986Y-92.075
X145.732Y-130.175
X148.114Y-73.025
X152.876Y-92.075
X153.511Y-111.125
X155.892Y-130.175
X158.274Y-73.025
X162.401Y-111.125
X163.036Y-92.075
X167.164Y-73.025
X171.926Y-92.075
X171.926Y-130.175
X172.561Y-111.125
X177.324Y-73.025
X181.451Y-111.125
X182.086Y-92.075
X182.086Y-130.175
X186.214Y-73.025
X190.976Y-92.075
X191.611Y-111.125
X196.374Y-73.025
X200.501Y-111.125
X201.136Y-92.075
X205.264Y-73.025
X210.026Y-92.075
X210.026Y-130.175
X210.661Y-111.125
X214.789Y-130.175
X214.789Y-130.175
X215.424Y-73.025
X219.551Y-111.125
X220.186Y-92.075
X220.186Y-130.175
X224.314Y-73.025
X224.949Y-130.175
X224.949Y-130.175
X229.076Y-92.075
X229.711Y-111.125
X231.457Y-130.175
X233.839Y-130.175
X234.474Y-73.025
X238.601Y-111.125
X239.236Y-92.075
X241.617Y-130.175
X243.999Y-130.175
X248.761Y-111.125
X250.507Y-73.025
X252.889Y-92.075
X255.27Y-130.175
X257.651Y-111.125
X260.667Y-73.025
X263.049Y-92.075
X265.43Y-130.175
X267.811Y-111.125
T3
X212.566Y-135.255
X223.679Y-132.715
T4
X38.894Y-73.025
X41.275Y-92.075
X41.275Y-130.175
X46.038Y-111.125
X57.944Y-73.025
X62.706Y-92.075
X62.706Y-130.175
X65.087Y-130.175
X72.231Y-111.125
X76.994Y-73.025
X81.756Y-92.075
X81.756Y-130.175
X86.519Y-130.175
X91.281Y-111.125
X96.044Y-73.025
X100.806Y-92.075
X100.806Y-138.43
X110.331Y-111.125
X110.331Y-138.43
X115.094Y-73.025
X119.856Y-92.075
X122.237Y-130.175
X129.381Y-111.125
X134.144Y-73.025
X134.144Y-138.43
X138.906Y-92.075
X148.431Y-111.125
X150.812Y-130.175
X153.194Y-73.025
X157.956Y-92.075
X157.956Y-138.43
X167.481Y-111.125
X172.244Y-73.025
X177.006Y-92.075
X177.006Y-130.175
X186.531Y-111.125
X191.294Y-73.025
X196.056Y-92.075
X196.056Y-138.43
X200.819Y-138.43
X205.581Y-111.125
X210.344Y-73.025
X215.106Y-92.075
X215.106Y-130.175
X219.869Y-130.175
X219.869Y-130.175
X224.631Y-111.125
X229.394Y-73.025
X234.156Y-92.075
X236.537Y-130.175
X238.919Y-130.175
X243.681Y-111.125
X255.587Y-73.025
X257.969Y-92.075
X260.35Y-130.175
X262.731Y-111.125
T0
M30
